<?xml version="1.0" encoding="UTF-8"?>
<svg id="Group_9" data-name="Group 9" xmlns="http://www.w3.org/2000/svg" viewBox="0 0 897.25 626.71">
  <defs>
    <style>
      .cls-1, .cls-2 {
        fill: #000;
        stroke-width: 0px;
      }

      .cls-2 {
        fill-rule: evenodd;
      }
    </style>
  </defs>
  <g id="Group_7" data-name="Group 7">
    <g id="Group_6" data-name="Group 6">
      <path id="Path_5" data-name="Path 5" class="cls-2" d="M285.22,602c46.7,17.5,78.01,14.11,93.94-10.19-37.52-8.43-68.83-5.04-93.94,10.19ZM309.96,526.03c37.84,4.99,60.83,22.91,68.97,53.77-41.71-1-64.7-18.93-68.97-53.77ZM76.83,0C32.96,44.87,22.12,87.3,44.3,127.29,72.63,86.62,83.48,44.19,76.83,0ZM16.57,92.36c20.62,25.75,28.22,57.29,22.78,94.62C9.29,170.12,1.7,138.58,16.57,92.36ZM88.66,96.99c.54,36.76-13.33,61.19-41.61,73.28-4.91-39.88,8.95-64.31,41.61-73.28ZM2.87,170.12c-3.16,40.57,9.15,64.8,36.91,72.7-2.8-31.46-15.1-55.69-36.91-72.7ZM81.17,164.88c-29.81,9.79-41.51,33.03-35.12,69.73,25.61-12.52,37.31-35.76,35.11-69.73h0ZM0,239.24c24.32,13.59,41.25,36.94,50.79,70.05-28.01-2.62-44.94-25.97-50.79-70.05ZM83.89,225.79c6.06,32.82-2.63,56.78-26.08,71.88-10.44-34.97-1.75-58.93,26.08-71.88ZM4.41,312.65c19.48,50.54,44.8,73.5,75.97,68.9-20.19-36.55-45.52-59.52-75.97-68.9ZM85.33,280.66c-24.86,23.71-25.5,52.17-1.94,85.4,19.44-24.39,20.09-52.86,1.94-85.4ZM32.75,398.23c31.13,44.3,61.26,60.46,90.39,48.49-28.44-30.56-58.57-46.72-90.39-48.49ZM113.3,341.35c24.64,33.79,27.8,65.58,9.47,95.37-30.77-33.82-33.93-65.61-9.47-95.37ZM76.33,470.22c39.06,37.52,71.73,47.61,98.03,30.27-33.79-24.57-66.46-34.66-98.03-30.27ZM148.17,397.3c-19.44,33.28-11.27,64.2,24.5,92.75,13.38-32.35,5.21-63.27-24.5-92.75ZM139.02,535.21c45.98,28.62,80.04,31.71,102.19,9.25-38.13-17-72.19-20.08-102.19-9.25ZM197.31,454.54c31.49,21.52,43.94,47.88,37.34,79.09-36.8-19.66-49.25-46.02-37.34-79.09h0ZM191.24,577.35c31.03-16.82,68.84-19.07,113.45-6.74-20.55,28.23-58.37,30.47-113.45,6.74h0ZM244.79,493.39c-3.05,35.01,15.72,57.3,56.31,66.89-1.61-31.85-20.38-54.15-56.31-66.89h0Z"/>
      <path id="Path_6" data-name="Path 6" class="cls-2" d="M612.04,602c-46.7,17.5-78.01,14.11-93.94-10.19,37.52-8.43,68.83-5.04,93.94,10.19ZM587.29,526.03c-37.8,4.99-60.79,22.91-68.97,53.77,41.71-1,64.7-18.93,68.97-53.77ZM820.43,0c43.83,44.87,54.67,87.3,32.53,127.29-28.34-40.67-39.18-83.1-32.53-127.29ZM880.68,92.36c-20.62,25.75-28.22,57.29-22.78,94.62,30.06-16.86,37.65-48.4,22.78-94.62ZM808.59,96.99c-.54,36.76,13.33,61.19,41.61,73.28,4.95-39.88-8.92-64.31-41.61-73.28ZM894.42,170.12c3.16,40.57-9.15,64.8-36.91,72.7,2.8-31.46,15.1-55.69,36.91-72.7ZM816.09,164.88c29.81,9.79,41.51,33.03,35.11,69.73-25.61-12.52-37.31-35.76-35.11-69.73ZM897.25,239.24c-24.35,13.59-41.28,36.94-50.79,70.05,28.01-2.62,44.94-25.97,50.79-70.05h0ZM813.36,225.79c-6.06,32.82,2.63,56.78,26.08,71.88,10.44-34.97,1.75-58.93-26.08-71.88ZM892.84,312.66c-19.48,50.54-44.81,73.5-76,68.9,20.23-36.55,45.56-59.52,76-68.9ZM811.89,280.66c24.86,23.71,25.5,52.17,1.94,85.4-19.4-24.39-20.05-52.86-1.94-85.4ZM864.51,398.24c-31.13,44.3-61.26,60.46-90.39,48.49,28.44-30.56,58.57-46.72,90.39-48.49h0ZM783.95,341.35c-24.64,33.79-27.8,65.58-9.47,95.37,30.77-33.82,33.93-65.61,9.47-95.37ZM820.93,470.22c-39.06,37.52-71.73,47.61-98.02,30.27,33.79-24.57,66.46-34.66,98.02-30.27ZM749.09,397.3c19.44,33.28,11.27,64.2-24.5,92.75-13.38-32.35-5.21-63.27,24.5-92.75ZM758.2,535.21c-45.95,28.62-80,31.71-102.15,9.25,38.13-17,72.18-20.08,102.15-9.25ZM699.98,454.54c-31.49,21.52-43.95,47.88-37.37,79.09,36.8-19.66,49.26-46.02,37.37-79.09h0ZM706.05,577.35c-31.06-16.82-68.88-19.07-113.45-6.74,20.52,28.23,58.33,30.47,113.45,6.74ZM652.46,493.39c3.05,35.01-15.71,57.3-56.28,66.89,1.58-31.85,20.34-54.15,56.28-66.89Z"/>
    </g>
    <path id="Path_7" data-name="Path 7" class="cls-2" d="M448.63,626.71c13.76,0,24.9-11.17,24.89-24.93,0-13.76-11.17-24.9-24.93-24.89-13.74,0-24.88,11.15-24.89,24.89.02,13.76,11.17,24.91,24.93,24.93Z"/>
  </g>
  <g id="Group_8" data-name="Group 8">
    <path id="Path_8" data-name="Path 8" class="cls-1" d="M185.43,33.68v36.66h241.28v164.95h-87.73v-109.97h-43.9v256.59h43.9v-109.97h219.33v109.97h43.87V125.32h-43.87v109.97h-87.73V70.33h241.28v-36.66H185.43Z"/>
    <rect id="Rectangle_48" data-name="Rectangle 48" class="cls-1" x="426.71" y="300.35" width="43.87" height="189.41"/>
  </g>
</svg>